<svg viewBox="0 0 32 32" xmlns="http://www.w3.org/2000/svg"><path d="m15.998047 3c-1.773 0-10.4628439 4.9839062-11.3398439 6.5039062-.878 1.5209998-.878 11.4791408 0 12.9941408.881 1.519 9.5708439 6.501953 11.3398439 6.501953 1.764 0 10.453891-4.980047 11.337891-6.498047.887-1.522.887-11.487906 0-13.0039061v-.0019531c-.891001-1.5170001-9.579891-6.4960938-11.337891-6.4960938zm-.001953 2.0117188c1.697.3529999 8.421609 4.2050468 9.599609 5.4980472.54 1.641.539 9.334515 0 10.978515-1.17 1.291-7.900609 5.148-9.599609 5.5-1.698-.35-8.4237034-4.205047-9.5957034-5.498047-.535-1.648-.535-9.334468 0-10.980468 1.169-1.2930004 7.8967034-5.1480473 9.5957034-5.4980472zm-2.996094 3.9882812-2 2h1v10h2v-4h4v4h-1l2 2 2-2h-1v-9h-2v3h-4v-4h1z"/></svg>